<svg width="78" height="78" viewBox="0 0 78 78" fill="none" xmlns="http://www.w3.org/2000/svg">
<path d="M39 69C55.5685 69 69 55.5687 69 39C69 22.4313 55.5685 9 39 9C22.4315 9 9 22.4313 9 39C9 55.5687 22.4315 69 39 69Z" fill="#139BD0"/>
<path fill-rule="evenodd" clip-rule="evenodd" d="M39.1038 46.3584C37.8623 47.588 36.6316 48.7972 35.4124 50.0159C34.9862 50.4427 34.507 50.6788 33.8952 50.646C33.4776 50.6234 33.244 50.4369 33.1158 50.0341C32.1817 47.0861 31.234 44.1453 30.3049 41.1944C30.2146 40.9081 30.0814 40.769 29.7963 40.6794C27.5956 39.9961 25.3993 39.2968 23.2066 38.588C22.8692 38.4788 22.5289 38.336 22.2374 38.1342C21.7868 37.8239 21.7209 37.3176 22.1249 36.9534C22.4981 36.6176 22.9437 36.3248 23.4064 36.1383C26.0963 35.0544 28.8005 34.0054 31.5005 32.947C38.3523 30.2568 45.2042 27.5689 52.0568 24.8787C53.3598 24.3666 54.3612 25.0878 54.2259 26.5206C54.1392 27.437 53.9056 28.3388 53.7172 29.2436C52.2294 36.3874 50.7401 43.532 49.2444 50.6744C48.8891 52.3702 47.7178 52.8131 46.3453 51.7838C44.0466 50.061 41.7499 48.3324 39.4526 46.6068C39.343 46.5259 39.2291 46.448 39.1038 46.3584ZM33.9439 48.5277C33.9697 48.5204 33.9955 48.5131 34.0213 48.5065C34.0356 48.4395 34.0564 48.374 34.0621 48.3077C34.2097 46.6883 34.3658 45.0697 34.4941 43.4475C34.5227 43.0862 34.6445 42.8298 34.9117 42.5865C37.0307 40.6597 39.1367 38.7206 41.2471 36.7859C43.5831 34.6435 45.9198 32.5034 48.2472 30.3523C48.3912 30.2197 48.4514 29.9938 48.5502 29.8103C48.331 29.7862 48.0961 29.6967 47.8969 29.7491C47.6254 29.8205 47.3683 29.9808 47.1261 30.1359C41.9706 33.4379 36.8193 36.7458 31.6602 40.0413C31.3686 40.2278 31.3142 40.3859 31.4252 40.7115C31.8056 41.8223 32.1516 42.9434 32.5105 44.0623C32.9883 45.5512 33.4661 47.0394 33.9439 48.5277Z" fill="white"/>
</svg>
